<svg xmlns="http://www.w3.org/2000/svg" id="Layer_1" viewBox="0 0 906.41374 1360.9592"><path d="M456.6089,1343.26057c-32.28071,0-59.94593-8.812-78.04631-24.8347l-339.02015-141.70185c-9.92929-4.14581-16.4675-13.72691-16.70187-24.44633-.05739-.71743-.08514-1.43487-.08514-2.1523,0-343.5792.00191-374.6001.00383-376.9265-.09183-5.43815,1.48748-10.80551,4.56862-15.42292,5.067-7.57706,13.52411-12.09785,22.62405-12.09785,5.38554,0,10.60272,1.58027,15.08525,4.57149l20.78454,13.88187,37.68729-27.28258c4.52557-3.28202,9.89294-5.06413,15.51762-5.15118l.58638-.0067c5.22388,0,10.2507,1.45496,14.60122,4.20799.62847.39698,61.16748,38.38177,111.9532,49.35564,1.78306-17.22894,6.94189-35.53116,15.69076-55.72263,12.92625-29.83091,37.19561-57.25603,51.69543-73.64318,3.88849-4.39357,7.23461-8.17588,8.90001-10.35592,10.15217-13.28975,15.77016-26.55845,16.06287-30.25372.69065-8.73452.12244-14.09519-1.3813-19.87293-39.67698-4.16207-75.31336-10.6582-105.97841-19.32289-28.7605-8.12614-51.78248-17.88228-68.42695-28.99869-22.79623-15.22682-34.35457-33.31668-34.35457-53.7693,0-15.05846,6.32968-28.92312,18.83217-41.27733-7.16191-9.30847-10.78638-19.47212-10.78638-30.27859,0-14.54382,6.51622-27.81923,19.37646-39.49523-4.60401-45.93587-14.45582-84.88298-20.6621-106.15921-27.80583-2.71668-49.78706-26.51063-49.78706-54.8598,0-30.39242,24.72756-55.11807,55.12286-55.11807s55.12286,24.72565,55.12286,55.11807c0,5.72417-.93458,11.54017-2.72338,17.03667,3.25045,2.59042,6.57744,5.03926,9.92929,7.30539,21.27814,14.38695,43.18571,21.68182,65.11336,21.68182,5.12439,0,10.34444-.39794,15.51475-1.18329,68.51687-10.39514,107.91548-58.55028,120.37014-147.17539-14.69496-10.26505-23.36157-26.84639-23.36157-45.05295,0-30.39242,24.72852-55.11807,55.12381-55.11807s55.12381,24.72565,55.12381,55.11807c0,18.09178-9.11237,35.16958-24.01109,45.43271,12.9846,85.2924,57.28472,136.02455,128.27627,146.79563,5.17318.78535,10.39419,1.18329,15.51571,1.18329,21.92861,0,43.83618-7.29487,65.11241-21.68182,4.09607-2.7693,8.13092-5.78826,12.03185-9.00332-1.87298-5.61416-2.85252-11.56504-2.85252-17.42791,0-30.39147,24.72948-55.11712,55.12381-55.11712s55.12381,24.72565,55.12381,55.11712c0,29.26079-22.92346,53.26901-51.75474,55.01668-5.5539,18.90008-16.41489,60.15542-21.25327,108.10393,12.85259,11.67313,19.36498,24.94375,19.36498,39.48279,0,10.84665-3.59865,21.03613-10.70603,30.35894,12.447,12.33604,18.75086,26.172,18.75086,41.19698,0,20.45261-11.55739,38.54247-34.35266,53.76738-16.64638,11.11832-39.66932,20.87542-68.42982,29.0006-12.19255,3.44464-25.39908,6.59178-39.33452,9.37352.69256,3.2935,1.14981,6.63292,1.36026,9.98573,1.73906,27.67574-21.39293,54.59865-28.52327,62.19006-1.96099,2.08821-3.92771,4.05972-5.89061,5.90305,5.81791,3.38629,11.50382,7.9683,16.75735,13.5375,22.91006,24.29423,35.95397,64.41698,35.45846,108.36316,47.50562-10.0326,104.56363-44.45987,111.8145-48.91657,3.42838-2.36849,7.41731-3.93728,11.54973-4.53992.88962-.12818,2.25179-.29654,3.9258-.29654.49359,0,1.01397.01722,1.54009.05261,1.59175.07174,3.31168.3195,4.99334.73083.57777.14253,1.23973.33385,1.85768.54142,1.2072.37307,2.59807.93745,3.8971,1.59079.38072.18749.97188.50699,1.58027.87049.70596.39411,1.4827.8944,2.20013,1.41765l36.45331,26.38818,20.60471-13.76326c2.17909-1.50566,4.8422-2.75112,7.62585-3.55369,2.42588-.70309,4.96082-1.06085,7.52636-1.06085.63326,0,1.26651.02104,1.89211.06505,3.81484.25349,7.5034,1.31147,10.9337,3.14523,3.34037,1.7888,6.21585,4.20129,8.55373,7.17147,2.13891,2.71477,3.723,5.78156,4.70254,9.1095,0,0,.0727.24967.08418.28793.71935,2.51102,1.06946,5.15979,1.02545,7.82768.00191,244.17823.00191,370.91153-.00191,376.58978.30419,11.10779-6.21011,21.22457-16.60047,25.61718l-336.18772,142.06535c-4.36391,4.15729-9.36299,7.87838-14.8748,11.07336-17.13424,9.93694-40.19736,15.41049-64.93831,15.41049ZM524.10701,626.71798c1.56305,1.71706,3.14714,3.42455,4.72741,5.12344-.36541-.8437-.80544-1.45591-1.34304-1.94664-1.16511-1.06659-2.29388-2.12456-3.38438-3.1768Z" style="fill:#fcf1e9;"></path><path d="M142.30249,1124.87172c18.17991,13.38861,38.61378,23.51368,59.70191,31.43363,28.15745,10.47857,57.81178,16.32758,87.56577,19.90161,28.96459,3.73213,60.12322,6.27263,87.47584,16.69639,23.82805,9.85894,53.52018,27.57367,56.19581,55.58262.4348-.02114.86936-.04326,1.30464-.06343.09138-2.26198-.07194-4.53805-.40904-6.78593-2.0588-13.41121-10.60932-25.00157-20.87547-33.47384-22.80691-19.06166-50.72643-23.2394-79.06919-27.65812-43.79285-7.03894-88.57645-13.88077-130.24209-29.48615-27.63929-10.26664-55.18136-22.62026-78.18027-41.36512-.0977-.09272-.2524-.09916-.35666-.00741-.109.096-.11945.26248-.02345.37137,5.05439,5.58021,10.90304,10.3489,16.91221,14.85439Z" style="fill:#614a39;"></path><path d="M463.59465,1245.48928c.14461-.00826.25495-.1327.24644-.27731-.22165-3.6721.28424-9.75151,1.19722-13.27219,7.13737-25.19053,32.50544-39.55046,55.12303-49.14156,27.3717-10.42692,58.49303-12.95989,87.4756-16.69603,29.75471-3.57403,59.40783-9.4228,87.56577-19.90161,21.08813-7.91996,41.522-18.04466,59.70215-31.43376,6.00869-4.50597,11.85794-9.27369,16.91197-14.85415.08579-.09722.08883-.24523.00182-.34585-.09782-.11472-.2733-.12152-.38169-.01774-22.99989,18.74474-50.53941,31.09727-78.18064,41.36439-41.67487,15.60781-86.4411,22.44624-130.24184,29.48652-27.25966,4.25807-54.42793,8.28549-76.83711,25.85464-14.02963,10.76803-26.20644,30.55699-22.85479,49.02952.02722.12371.14121.2129.27208.20513Z" style="fill:#614a39;"></path><path d="M157.8696,1114.76682c18.17979,13.38885,38.61353,23.51368,59.70191,31.43363,28.15733,10.47893,57.81166,16.3277,87.56564,19.90173,28.96483,3.73225,60.12334,6.273,87.47608,16.69603,25.06014,10.36981,56.48758,31.66161,56.26751,62.24703-.01847.13537.06441.26905.20391.29943.14157.03135.28168-.05833.31279-.19978.82379-3.73383.87349-9.8356.30696-13.61294-2.05855-13.41097-10.60896-25.00181-20.87547-33.47396-22.80643-19.06142-50.72691-23.23965-79.06919-27.65824-43.79285-7.03894-88.57633-13.88053-130.24221-29.48591-27.63917-10.267-55.18124-22.62038-78.18015-41.36524-.09819-.09333-.25179-.09867-.35654-.00741-.10913.09612-.11958.26236-.02357.37149,5.05439,5.58009,10.90304,10.34878,16.91233,14.85415Z" style="fill:#614a39;"></path><path d="M589.55716,1191.65364c-27.25929,4.2571-54.42866,8.28573-76.83723,25.85476-10.5115,8.06761-20.03212,19.86211-22.73668,33.03928.77056.11253,1.53589.24304,2.30378.36602,7.98096-23.78394,32.49062-37.56433,54.41687-46.86172,27.37182-10.42716,58.49315-12.96001,87.47572-16.69627,29.75435-3.57379,59.40783-9.42292,87.56564-19.90161,21.08813-7.91996,41.52212-18.04478,59.70203-31.43351,6.00869-4.50597,11.85819-9.27406,16.91197-14.85439.08591-.09709.08895-.24511.00194-.34585-.09795-.11472-.27318-.1214-.38169-.01774-23.00013,18.74461-50.53941,31.09739-78.18064,41.36439-41.67487,15.60781-86.44122,22.44588-130.24172,29.48664Z" style="fill:#614a39;"></path><path d="M578.58157,1180.50464c-27.25905,4.25783-54.4289,8.28549-76.83711,25.85513-13.06172,10.02445-24.58791,25.80482-23.41221,42.84122.34135.03062.68234.05833,1.02369.09041.17657-2.45422.63822-4.89022,1.24911-7.24674,7.13761-25.19065,32.50556-39.55082,55.12327-49.14132,27.37194-10.42729,58.49303-12.96037,87.4756-16.69639,29.75422-3.57403,59.40807-9.4228,87.56577-19.90161,21.08813-7.91996,41.522-18.0449,59.70191-31.43351,6.00917-4.50585,11.85806-9.27394,16.91221-14.85451.08579-.09709.08883-.24498.00182-.34585-.09782-.11459-.27318-.12152-.38169-.01774-23.00001,18.74474-50.53941,31.09763-78.18052,41.36451-41.67487,15.60757-86.4411,22.44624-130.24184,29.48639Z" style="fill:#614a39;"></path><path d="M392.79673,1259.38584c-3.68826-5.67548-8.41649-10.72805-13.5811-14.99025-22.80679-19.06117-50.72679-23.23977-79.06907-27.65824-11.91141-1.91443-23.89549-3.82303-35.8707-5.88972.11982.8888.0429,1.80761-.23247,2.65558,26.4795,3.23693,50.32662,18.31601,75.01686,27.72508,16.16559,6.68847,36.66629,11.96682,49.13281,23.07426,1.11786-1.87263,2.67563-3.54523,4.60367-4.91671Z" style="fill:#614a39;"></path><path d="M535.79078,1242.59248c-6.23156,4.78279-12.11119,10.87703-16.43281,17.7908,1.05613.92817,2.02927,1.95259,2.88307,3.09828.16101.21606.30854.43456.45765.65256,12.09624-12.6522,33.32157-15.97967,50.74648-23.36809,18.70986-7.12789,35.50104-22.19518,55.83404-24.85125,2.47196-1.53529,5.23266-2.1746,8.24016-2.83191.08397-.1485.17681-.29189.27208-.43371-8.40337,1.39347-16.80211,2.74453-25.16368,4.08843-27.25905,4.25758-54.42866,8.28573-76.83699,25.85488Z" style="fill:#614a39;"></path><path d="M808.38687,1133.22623c-.09795-.11472-.2733-.12152-.38182-.01774-22.99989,18.74474-50.53929,31.09751-78.18052,41.36451-41.67487,15.60757-86.44097,22.44649-130.24184,29.48639-27.25929,4.25783-54.4283,8.28549-76.83711,25.85488-7.81108,5.99508-15.07118,14.04944-19.39803,23.19821.5099.12346,1.02685.2304,1.53383.3597.56398.14388,1.12977.3004,1.69569.46324,10.51697-18.15366,31.28684-29.47789,50.15236-37.4772,27.37194-10.42777,58.49327-12.9605,87.47584-16.69627,21.17514-2.54366,42.2962-6.25027,62.8663-11.9469,9.11572-4.98379,19.05364-7.9326,28.83505-11.33881,11.24597-3.91635,21.56972-9.19641,32.26119-14.38581,1.17972-.5726,2.3361-.79353,3.42809-.7544,6.85483-3.93555,13.50673-8.21793,19.87706-12.90946,6.00869-4.50597,11.85806-9.27406,16.91197-14.85451.08579-.09697.08895-.24498.00194-.34585Z" style="fill:#614a39;"></path><path d="M356.04489,1216.45822c17.87271,7.39511,39.04785,19.20955,49.64951,36.47053,1.03474-.35897,2.07897-.68999,3.13133-.99574-3.91076-7.82371-9.86562-14.68693-16.56491-20.21562-22.8074-19.0613-50.72618-23.23928-79.06919-27.65824-43.79285-7.03845-88.57645-13.88065-130.24233-29.48591-27.63892-10.26676-55.18136-22.62026-78.18003-41.36524-.09782-.0926-.25252-.09916-.35666-.00729-.109.096-.1197.26248-.02345.37137,5.05439,5.58021,10.90304,10.3489,16.91221,14.85439,5.36658,3.95232,10.9339,7.61324,16.65216,11.02395,1.44876-.33114,3.06243-.18884,4.71802.65876,14.14872,7.24406,29.1188,12.48499,43.9902,18.0093,7.52453,2.79509,15.05818,5.63562,22.38451,8.92323,2.49238,1.11847,4.94162,2.331,7.38478,3.55641,17.15574,4.15891,34.62828,7.06032,52.13801,9.16384,28.96459,3.73189,60.12322,6.27239,87.47584,16.69627Z" style="fill:#614a39;"></path><path d="M131.32703,1136.02047c18.17967,13.38885,38.61366,23.51368,59.70191,31.43363,28.15733,10.47845,57.81154,16.32782,87.56564,19.90161,28.96471,3.73237,60.12334,6.27287,87.47596,16.69627,20.84047,8.62295,46.16529,23.25642,53.98268,45.52767.79705-.11083,1.59605-.21193,2.3965-.30404-3.11396-12.87045-12.05614-23.77324-22.39581-31.76684-22.4059-17.5683-49.57685-21.59803-76.83675-25.85537-43.79285-7.03894-88.57633-13.88053-130.24221-29.48615-27.63904-10.26664-55.18136-22.62026-78.18003-41.365-.09795-.09308-.25203-.09892-.35666-.00753-.10913.09624-.1197.26248-.02345.37161,5.05427,5.57997,10.90304,10.34866,16.91221,14.85415Z" style="fill:#614a39;"></path><path d="M673.11035,1197.76895c-.80017.97488-1.82124,1.77067-2.8585,2.48963-.91415.63391-1.82407,1.27501-2.71419,1.94154-13.21322,1.34978-24.28137,12.44541-37.2683,15.03062-18.77691,3.7559-34.32193,14.50553-52.47857,20.34327-14.56543,4.81609-20.21138,14.10158-39.88197,18.36839-5.87531,1.27443-13.6-2.13563-17.17759,2.80637-.16268-.42603-.33449-.84743-.52814-1.25805,6.87222-13.20924,18.74055-23.47506,31.58869-30.75997,23.23113-12.96076,50.19611-16.67555,76.01216-21.10903,15.12235-2.50196,30.25614-4.98003,45.3064-7.85277ZM242.13406,1199.58175c.80017.97488,1.82124,1.77067,2.8585,2.48963.91415.63391,1.82407,1.27501,2.71419,1.94154,13.21322,1.34978,24.28137,12.44541,37.2683,15.03062,18.77691,3.7559,34.32193,14.50553,52.47857,20.34327,14.56543,4.81609,20.21138,14.10158,39.88197,18.36839,5.87531,1.27443,11.77358-2.13563,15.35117,2.80637.16268-.42603,2.16091-.84743,2.35456-1.25805-6.87222-13.20924-18.74055-23.47506-31.58869-30.75997-23.23113-12.96076-50.19611-16.67555-76.01216-21.10903-15.12235-2.50196-30.25614-4.98003-45.3064-7.85277Z" style="fill:#614a39;"></path><path d="M456.60899,1321.04649c-45.74507,0-77.69322-20.2754-77.69322-49.30513h9.95494c0,23.16856,27.85535,39.35019,67.73828,39.35019,39.76919,0,67.54482-16.18163,67.54482-39.35019h9.95494c0,14.92463-8.41698,28.02645-23.7013,36.89159-13.80275,8.00478-32.90865,12.41353-53.79846,12.41353Z" style="fill:#614a39;"></path><path d="M534.205,1271.74136h-9.95494c0-2.95829-4.64693-7.42537-17.68751-11.09334-12.66532-3.562-30.43936-5.52382-50.0498-5.52382-46.07852,0-67.5458,9.91605-67.5458,16.61716h-9.95494c0-19.59198,40.03459-26.5721,77.50073-26.5721,37.5585,0,77.69225,6.98012,77.69225,26.5721Z" style="fill:#614a39;"></path><path d="M485.82294,1261.83455c-13.54988,14.05425-36.81037,15.42591-53.18693,5.59196-2.32642-1.40024-4.57309-2.95448-6.48825-4.86211,4.58277,2.70354,9.50535,4.71259,14.59505,6.13365,15.15378,4.39971,31.94012,1.94938,45.08013-6.8635h0Z" style="fill:#614a39;"></path><path d="M417.19804,1267.96816c12.67878,9.10132,28.5688,13.91145,44.14924,12.52249,12.12666-1.13573,23.76259-6.08181,33.42491-13.47101-2.3546,2.66244-5.13547,4.94095-8.06119,6.99537-20.97286,14.93892-51.4009,12.15782-69.51297-6.04685h0Z" style="fill:#614a39;"></path><path d="M412.42667,1277.38403c10.26243,7.45676,22.5089,12.20052,35.08187,13.68572,14.47424,1.85782,29.32638-1.41225,42.10193-8.37804,3.4575-1.84776,6.78521-3.96342,9.93356-6.37293-2.7099,2.90798-5.867,5.39234-9.17721,7.62928-23.67547,16.19629-57.37016,13.48213-77.94015-6.56404h0Z" style="fill:#614a39;"></path><path d="M409.51942,1286.91972c10.01308,7.53418,21.94138,12.44939,34.2847,14.39561,12.24476,2.00954,25.01541.72963,36.64275-3.58766,7.80598-2.85348,15.27267-6.82889,22.0044-11.94441-10.48113,10.55811-24.98334,17.38455-39.80753,19.01877-19.08215,2.10289-39.4427-4.28599-53.12432-17.88231h0Z" style="fill:#614a39;"></path><path d="M392.59506,1299.80086c-.63968,0-1.29006-.12346-1.9171-.38595l-342.56938-143.18387c-2.06973-.86522-3.24702-2.96412-3.03509-5.08441-.06902-.32956-.10499-.67079-.10499-1.02077v-376.74378c0-.08555.00194-.17013.00681-.25471-.05541-1.03535.21193-2.09598.8312-3.0244,1.52727-2.28361,4.6168-2.90093,6.90429-1.37464l33.62124,22.45499,50.20146-36.34135c2.22528-1.61184,5.33814-1.11604,6.94998,1.11313,1.61184,2.22625,1.1141,5.33814-1.11313,6.94998l-52.91282,38.30609c-.06027.04569-.12152.08944-.18277.13221l-5.41494,3.91976v316.75945l52.89143-38.29053c2.22431-1.61087,5.33814-1.11507,6.94998,1.11313,1.61184,2.22625,1.1141,5.33814-1.11313,6.94998l-53.96567,39.06924,302.90129,126.95654c2.5354,1.06257,3.72921,3.97906,2.66664,6.51446-1.06257,2.5354-3.97809,3.73018-6.51446,2.66664l-310.61248-130.18801c-.27221-.10694-.53177-.23721-.7787-.38789-.63579-.38886-1.16076-.90508-1.55449-1.50102-.38789-.58524-.65524-1.25603-.76704-1.97932-.04472-.29068-.06513-.58524-.05833-.88175v-328.56052c0-.13027.00486-.25957.01458-.38789-.13124-1.67212.58621-3.37048,2.04446-4.42528l1.76739-1.28034-22.80789-15.2328v366.11319l339.59359,141.9395c2.5354,1.06063,3.73213,3.97614,2.67247,6.51154-.79814,1.90933-2.6472,3.05939-4.59444,3.05939ZM522.15408,1298.26679c-1.94043,0-3.78365-1.14132-4.58666-3.04092-1.07035-2.53248.11472-5.45286,2.6472-6.52223l336.83265-142.33906v-364.96798l-22.69512,15.15795,2.89899,2.0989c.09333.06611.18471.13513.27318.20707.55997.45497.99744,1.0091,1.30367,1.61962.29554.58427.47928,1.23562.52302,1.92391.00778.12833.01167.25665.00972.38498v328.49345c.00486.22651-.00486.45206-.03111.67565-.03889.34901-.11569.69607-.2304,1.03438v.00194c-.00097.00292-.00194.00486-.00292.00778s-.00194.00681-.00292.00972h-.00097c-.13902.40831-.33053.79231-.5658,1.14423-.27415.4122-.61052.78648-1.00424,1.10535-.00292.00292-.00778.00389-.00778.00681-.27707.22457-.57552.41609-.88856.57358-.13805.07-.27998.13319-.42483.19054l-310.31888,130.06552c-2.52956,1.06452-5.45091-.13124-6.51446-2.66664-1.06257-2.5354.13124-5.45188,2.66664-6.51446l302.24605-126.68239-54.28648-39.25103c-2.22722-1.61087-2.72789-4.72276-1.11701-6.94998,1.61184-2.22819,4.72373-2.72691,6.94998-1.11701l53.57875,38.73967v-316.39295l-6.57181-4.75679c-.07972-.05444-.15749-.11083-.23429-.17013l-51.70442-37.43114c-2.22722-1.61184-2.72497-4.72373-1.11313-6.94998,1.61184-2.22722,4.72471-2.72497,6.94998-1.11313l49.01931,35.48585,33.45208-22.34222c.43456-.29943.91869-.53177,1.43783-.68149.56677-.1643,1.15396-.22165,1.72461-.18277.72232.04861,1.40186.25179,2.00751.57649.59205.31595,1.12674.75634,1.56324,1.31145.39178.49775.69121,1.07132.87106,1.69545,0,.00194.00194.00583.00194.00583.1361.47344.19929.95855.19249,1.44074v376.67864c0,.13902-.00583.27609-.01653.41122.17888,2.09015-.98674,4.14821-3.02342,5.00858l-339.8726,143.62328c-.63288.26734-1.28909.39373-1.93557.39373Z" style="fill:#614a39;"></path><path d="M307.76926,880.62616c14.41111.92232,29.1486,3.02729,43.88609,8.2897,14.73749,4.20993,28.4223,9.47235,40.94156,19.04872M189.04259,851.2953c29.97534,15.51841,63.66104,24.99076,97.71988,28.29917M392.59691,940.23031c-25.15139-17.63496-54.62638-25.00235-84.82766-27.33842M189.04259,883.56102c31.02802,14.8272,63.66104,25.35204,97.71988,28.29917M392.59691,971.35763c-25.15139-17.18777-55.67905-25.60764-84.82766-27.33842M189.04259,914.68834c20.49311,10.37142,42.85778,17.9417,65.19153,23.08925,10.7067,2.46771,21.57484,4.29682,32.52835,5.20992M392.59691,1007.52433c-25.15139-17.57003-54.62638-24.93742-84.82766-27.33842M189.04259,950.85505c31.02802,14.89213,63.66104,25.41697,97.71988,28.29917M392.59691,1039.65817c-25.15139-17.07687-55.67905-24.44425-84.82766-27.33842M189.04259,982.98888c29.97534,15.3853,63.66104,24.85765,97.71988,28.29917M392.59691,1072.04482c-25.15139-17.889-54.62638-25.25639-84.82766-27.33842M189.04259,1015.37553c29.97534,15.62564,63.66104,24.04551,97.71988,28.29917M392.59691,1109.3631c-25.15139-16.26539-54.62638-25.73774-84.82766-27.33842M189.04259,1052.69381c20.49311,10.37142,42.85778,17.9417,65.19153,23.08925,10.7067,2.46771,21.57484,4.29682,32.52835,5.20992M596.95382,880.71609c-29.49949,2.93736-58.97447,9.25226-83.54919,27.24849M619.23907,879.59446c33.48217-3.3084,67.16787-12.78075,97.71988-28.29917M599.52003,912.80907c-18.25273,1.12066-36.42328,4.5632-53.63791,10.78998-9.7959,3.54332-19.40252,7.94555-28.1623,13.61606-1.47255.95323-2.92981,1.93795-4.3152,3.0152M620.5414,911.74727c33.23252-2.83421,65.86554-13.35905,96.41755-28.18625M598.23228,944.01921c-27.61992,1.73078-52.88419,8.04568-77.09578,21.72797-2.10536,2.10497-4.21071,4.20993-7.73187,5.61045M620.5414,942.8746c33.23252-3.43951,66.91822-12.91186,96.41755-28.18625M596.95382,980.27584c-29.49949,2.31108-58.97447,9.67847-83.54919,27.24849M617.93503,979.25844c33.73354-4.0389,68.47191-12.45877,99.02393-28.40339M596.95382,1012.40967c-29.49949,2.80424-58.97447,9.11915-83.54919,27.24849M617.93503,1011.39227c34.78622-2.49325,68.47191-13.01809,99.02393-28.40339M596.95382,1044.79632c-29.49949,1.99211-58.97447,9.35949-83.54919,27.24849M619.23907,1043.67469c33.48217-3.20117,67.16787-12.67352,97.71988-28.29917M596.95382,1082.11461c-17.66725,1.2978-35.22982,4.79303-51.87369,10.9096-9.56643,3.51563-18.94911,7.85442-27.50844,13.41966-1.42142.9242-2.82811,1.878-4.16706,2.91924M617.93503,1081.0972c34.78622-2.73426,67.41923-14.31158,99.02393-28.40339" style="fill:#614a39;"></path><path d="M818.41792,827.08936c2.17027,83.69604,2.18769,168.55542.0004,252.25123-2.18805-83.6956-2.17067-168.55498-.0004-252.25123h0ZM803.99722,818.5892c-2.17026,83.7757-2.18765,168.71562.0004,252.49067,2.18729-83.77525,2.16987-168.71518-.0004-252.49067h0ZM789.57652,810.20876c-2.17026,83.7757-2.18765,168.71562.0004,252.49067,2.18729-83.77525,2.16987-168.71518-.0004-252.49067h0ZM94.74643,827.08936c-2.17027,83.69604-2.18769,168.55542-.0004,252.25123,2.18805-83.6956,2.17067-168.55498.0004-252.25123h0ZM109.16713,818.5892c-2.17027,83.77549-2.18769,168.71542-.0004,252.49067,2.18805-83.77505,2.17067-168.71497.0004-252.49067h0ZM123.58782,810.20876c-2.17027,83.77549-2.18769,168.71542-.0004,252.49067,2.18805-83.77505,2.17067-168.71497.0004-252.49067h0Z" style="fill:#614a39;"></path><path d="M456.51275,1255.1242h-.00097c-2.74927-.00097-4.97747-2.23014-4.9765-4.97844l.01069-40.14056c-.00681-.10694-.01069-.21485-.01069-.32373,0-14.23148-22.86038-28.73418-64.36877-40.83663-42.01586-12.25021-92.2912-19.03298-111.95706-21.38075-25.33356-3.0244-56.30955-13.43139-92.06663-30.93224-26.50405-12.97155-45.94534-25.25579-46.1388-25.37828-1.09174-.69218-1.8228-1.74017-2.13681-2.89704-.24207-.58524-.37623-1.22687-.37623-1.90058v-327.18589c0-1.1034.35873-2.12223.96633-2.94759.00292-.00486.00583-.00972.00875-.01361,1.47185-2.32249,4.54583-3.00981,6.86929-1.53893.7544.4783,76.14165,47.91882,134.0543,54.83187,24.73179,2.95246,72.37258,9.69829,113.56307,21.70837,35.38571,10.31852,57.40421,21.95822,66.58627,35.29628,9.21123-13.33611,31.29583-24.97775,66.78459-35.29725,41.25465-11.9955,88.98877-18.74911,113.77014-21.7074,55.38211-6.6107,126.74364-50.28409,133.53613-54.50716.85161-.68537,1.93363-1.0966,3.11189-1.09854h.06708c1.64781,0,3.26063.81759,4.20849,2.31277.67954,1.07229.89828,2.305.70871,3.46673v326.38288c0,.02625,0,.0525-.00097.07875.31595,1.91127-.5065,3.91392-2.24569,5.01635-.19346.12249-19.63475,12.40673-46.1388,25.37828-35.75708,17.50086-66.73307,27.90785-92.06663,30.93224-19.70669,2.35263-70.08606,9.14513-112.17094,21.38172-41.64255,12.10827-64.57584,26.61001-64.57584,40.83565,0,.17499-.00875.34803-.02625.51816l-.01069,39.94807c-.00097,2.7483-2.22917,4.9765-4.97747,4.9765ZM461.58549,880.35877l-.07972,308.38331c11.11084-10.93001,31.60692-20.67107,61.81782-29.45553,41.25563-11.9955,88.98877-18.74911,113.77014-21.7074,52.11565-6.22184,118.38305-45.26385,131.67736-53.36585v-316.46489c-8.07478,4.76943-21.87558,12.60408-38.43053,20.70704-35.75805,17.49988-66.73307,27.90687-92.06663,30.93127-19.70669,2.35263-70.08606,9.14513-112.17094,21.38172-40.42735,11.75538-63.22162,25.76617-64.51751,39.59031ZM144.44592,1084.05096c12.65171,7.72771,79.4713,47.26359,131.94373,53.5282,24.73179,2.95246,72.37258,9.69829,113.56307,21.70837,30.08841,8.77376,50.51255,18.50315,61.59811,29.41956l.07972-306.12984c-.06222-.31498-.09527-.63968-.09527-.97216,0-14.23148-22.86038-28.73418-64.36877-40.8376-42.01586-12.25021-92.2912-19.03298-111.95706-21.38075-25.33356-3.0244-56.30955-13.43139-92.06663-30.93127-16.73965-8.19338-30.66198-16.11164-38.6969-20.86453v316.46003Z" style="fill:#614a39;"></path><path d="M458.89066,578.34021c-76.12318,0-147.75303-8.39267-201.69439-23.63325-26.52252-7.49342-47.42594-16.27302-62.12988-26.09476-16.24288-10.84932-24.47806-22.72428-24.47806-35.29628s8.23518-24.44695,24.47806-35.29628c14.70395-9.82175,35.60737-18.60134,62.12988-26.09476,53.94137-15.24058,125.57121-23.63325,201.69439-23.63325s147.75303,8.39267,201.69439,23.63325c26.52252,7.49342,47.42594,16.27302,62.12988,26.09476,16.24288,10.84932,24.47806,22.72428,24.47806,35.29628s-8.23518,24.44695-24.47806,35.29628c-14.70395,9.82175-35.60737,18.60134-62.12988,26.09476-53.94137,15.24058-125.57121,23.63325-201.69439,23.63325ZM458.89066,418.24656c-75.23365,0-145.90203,8.25949-198.98692,23.258-50.43478,14.24897-79.36048,33.13322-79.36048,51.81136s28.9257,37.56238,79.36048,51.81136c53.08489,14.99851,123.75327,23.258,198.98692,23.258s145.903-8.25949,198.98789-23.258c50.43381-14.24897,79.35951-33.13322,79.35951-51.81136s-28.9257-37.56238-79.35951-51.81136c-53.08489-14.99851-123.75424-23.258-198.98789-23.258Z" style="fill:#614a39;"></path><path d="M458.89066,445.56491c130.57444,0,236.42584,21.37881,236.42584,47.751s-105.8514,47.75088-236.42584,47.75088-236.42584-21.37881-236.42584-47.75088,105.8514-47.751,236.42584-47.751M458.89066,435.60997c-63.79325,0-123.86507,5.03689-169.14933,14.18299-22.51381,4.54716-40.34131,9.91447-52.9867,15.95281-16.08733,7.68202-24.24474,16.9579-24.24474,27.57014s8.15741,19.888,24.24474,27.57014c12.64539,6.03822,30.4729,11.40552,52.9867,15.95269,45.28427,9.14598,105.35608,14.18299,169.14933,14.18299s123.86507-5.03701,169.14933-14.18299c22.51381-4.54716,40.34131-9.91447,52.9867-15.95269,16.08733-7.68214,24.24474-16.95802,24.24474-27.57014s-8.15741-19.88812-24.24474-27.57014c-12.64539-6.03834-30.4729-11.40564-52.9867-15.95281-45.28427-9.1461-105.35608-14.18299-169.14933-14.18299h0Z" style="fill:#614a39;"></path><path d="M654.60602,367.87751c-52.31637-13.6595-121.82303-21.18255-195.71488-21.18255s-143.3985,7.52305-195.71488,21.18255c-31.0167,8.09864-83.04944,25.86737-83.04944,53.88117,0,12.18936,9.90371,22.42615,23.54646,30.76232-.3967-2.20333.00873-4.57193,1.21132-6.43027-12.09721-7.80814-18.59129-16.08048-18.59129-24.33205,0-17.43517,28.59046-34.89924,78.44084-47.91572,51.82257-13.53065,120.77521-20.98266,194.157-20.98266s142.33503,7.452,194.15639,20.98266c49.84978,13.01647,78.44084,30.48054,78.44084,47.91572,0,8.05153-6.15866,16.13316-17.70245,23.78235.10569.48889.17223.98621.18819,1.4864.00241.0429.00331.0712.00527.10913.0271.11364.04622.22909.07663.34183.17238.65642.40106,1.29599.62689,1.93555.29267.82922.57811,1.64821.80167,2.48781,17.36808-10.99618,22.17029-21.69131,22.17029-30.14308,0-28.0138-52.03334-45.78253-83.04884-53.88117Z" style="fill:#614a39;"></path><path d="M205.73197,455.52896l-2.83774-1.73336c-16.09803-9.8373-24.2603-20.61566-24.2603-32.03662,0-29.01903,52.732-47.11873,84.1649-55.32572,52.4384-13.69193,122.07921-21.23201,196.0928-21.23201s143.65342,7.54009,196.09182,21.23201c31.4329,8.20699,84.1649,26.30864,84.1649,55.32572,0,11.23236-7.69272,21.79878-22.86427,31.40471l-1.71878,1.08785-.52302-1.96571c-.20221-.75731-.45594-1.49227-.76704-2.37499l-.03986-.11083c-.21971-.62218-.44622-1.26478-.62413-1.94238-.02236-.08555-.04278-.17888-.06222-.27221l-.06708-.50844c-.01361-.39275-.06513-.80301-.15555-1.22006l-.21679-.99744.85161-.56288c11.14389-7.38454,17.03422-15.17739,17.03422-22.53763,0-16.70174-28.18394-33.63971-77.32477-46.47127-51.70442-13.49944-120.52375-20.93453-193.77905-20.93453s-142.0756,7.43509-193.78002,20.93453c-49.14083,12.83156-77.32477,29.76954-77.32477,46.47127,0,7.53523,6.19267,15.5157,17.90722,23.07815l1.25603.81078-.81273,1.25506c-.97411,1.50393-1.33672,3.45603-.99452,5.35369l.58913,3.2723ZM458.89163,348.18772c-73.76666,0-143.13915,7.50606-195.3384,21.1348-71.28862,18.61301-81.93282,40.84246-81.93282,52.43646,0,9.75856,6.8829,19.17006,20.46789,27.99923.11277-1.10438.39373-2.17764.83411-3.16828-12.02758-8.0252-18.12207-16.37412-18.12207-24.83095,0-18.16776,28.99764-36.15956,79.55685-49.36054,51.94455-13.56263,121.03122-21.03175,194.53442-21.03175s142.5889,7.46912,194.53345,21.03175c50.55921,13.20098,79.55685,31.19278,79.55685,49.36054,0,8.34018-5.90977,16.57633-17.56891,24.48875.02625.23429.04375.46664.0525.69607l.03305.14874c.14777.5658.34512,1.12285.55316,1.71295l.03986.1118c.07291.20804.15166.43067.23137.66301,13.16599-8.72223,19.8389-18.0754,19.8389-27.82132,0-11.594-10.6442-33.82248-81.93282-52.43646-52.19925-13.62874-121.57174-21.1348-195.33743-21.1348Z" style="fill:#614a39;"></path><path d="M731.33126,434.31708c.15957-.4918.0332-1.03558-.29768-1.43293-15.1973-18.25064-51.98289-30.39452-76.09138-36.68969-52.31637-13.6595-121.82303-21.18255-195.71488-21.18255s-143.3985,7.52305-195.71488,21.18255c-24.09686,6.29187-60.86478,18.42406-76.076,36.65922-.60125.72078-.41577,1.80615.40544,2.26084.77774.43062,1.43899.98796,1.98362,1.6349.60848.72277,1.6974.76968,2.29763.04004,10.51102-12.77722,35.8254-24.93677,72.94719-34.62954,51.82257-13.53065,120.77521-20.98266,194.157-20.98266s142.33503,7.452,194.15639,20.98266c37.07284,9.68022,62.37256,21.82091,72.91301,34.57958.55493.67171,1.5691.69928,2.17754.07561.58467-.5993,1.26738-1.0843,2.01098-1.45715.39576-.19844.688-.53884.82057-.96118.00835-.02661.01683-.05318.02544-.07971Z" style="fill:#614a39;"></path><path d="M191.01538,438.80778c-.89536,0-1.74503-.39859-2.33222-1.09563-.44331-.52788-.96925-.96147-1.56421-1.29103-.77676-.43067-1.31533-1.17632-1.47866-2.04834-.1643-.88078.07194-1.78392.65038-2.4761,8.31004-9.96271,28.38809-24.49556,76.84452-37.14727,52.43938-13.69095,122.08018-21.23104,196.09182-21.23104s143.65342,7.54009,196.0928,21.23104c48.48073,12.66046,68.55684,27.20692,76.86105,37.17935.66399.7962.88272,1.88794.57066,2.84941l-.00389.01167-1.41644-.47247,1.40866.49677c-.26248.83995-.82245,1.49616-1.5856,1.87822-.61538.30915-1.15882.7019-1.61184,1.16659-.5901.60274-1.41158.92453-2.25153.89536-.83314-.03403-1.61476-.42192-2.14556-1.06452-10.35838-12.53797-35.97776-24.64333-72.13926-34.08496-51.70442-13.49944-120.52278-20.93453-193.77905-20.93453s-142.07463,7.43509-193.77905,20.93453c-36.21108,9.45524-61.8431,21.57713-72.17231,34.13357-.5551.67468-1.37269,1.06452-2.24278,1.06938h-.0175ZM459.22702,376.50485c-73.76471,0-143.1372,7.50509-195.33743,21.13382-21.54991,5.62687-59.98918,17.80806-75.30656,36.17122.89828.50552,1.70712,1.17145,2.38568,1.97835,10.88238-13.17474,36.37538-25.32092,73.72486-35.07268,51.94455-13.56263,121.03025-21.03175,194.53345-21.03175s142.58988,7.46912,194.53345,21.03175c37.29601,9.73814,62.77637,21.86586,73.68694,35.07268.64454-.71843,1.45533-1.30659,2.36819-1.76545l.08361-.15069c-15.33099-18.41566-53.77707-30.60365-75.33378-36.23344-52.20022-13.62874-121.57271-21.13382-195.3384-21.13382Z" style="fill:#614a39;"></path><path d="M202.78173,352.66404c-6.72566-45.41941-17.49041-84.60056-26.20315-108.95526-1.22056.79831-2.43256,1.51098-3.85641,2.05654-.58058.22246-1.17182.37938-1.76915.48218,12.81615,35.80898,26.41125,94.08242,30.28687,149.41274,1.30621-1.42364,3.20834-2.36575,5.71929-2.36575.13451,0,.26012.01388.39111.01927-1.07855-14.51683-2.74927-28.36451-4.56857-40.64972Z" style="fill:#614a39;"></path><path d="M199.57721,400.41809l-.32373-4.61874c-4.15016-59.25423-18.84827-117.23395-30.17493-148.88073l-.79814-2.23014,2.33416-.40247c.48997-.08458.95855-.21193,1.39505-.37914,1.33478-.51233,2.46151-1.19868,3.47937-1.86461l2.11348-1.38144.85064,2.37694c5.18551,14.4959,18.12887,54.16691,26.29795,109.33417,2.06779,13.96219,3.61061,27.68814,4.58471,40.79385l.16527,2.21945-2.54318-.10013c-1.77322,0-3.20327.57941-4.25126,1.72073l-3.12939,3.41229ZM173.53786,247.58454c11.08459,31.65067,25.03316,87.26318,29.43414,144.47976.7019-.29262,1.45047-.50358,2.23889-.62704-.97313-12.39701-2.45082-25.33259-4.39903-38.48205h0c-7.71994-52.13314-19.71641-90.30119-25.29856-106.28644-.60857.32567-1.26575.63871-1.97543.91578Z" style="fill:#614a39;"></path><path d="M207.18558,422.43986c-.07852,0-.15101-.00901-.22823-.01105-1.16609.83889-2.65638,1.35618-4.48069,1.35618-.06318,0-.1212-.00785-.18359-.00901.05111,11.99398-.48053,23.61227-1.69911,34.58737,1.01413-.48851,2.20392-.77536,3.57947-.77536,1.00417,0,1.9101.15164,2.72145.42192,1.2689-11.65798,1.75037-23.69762,1.66253-35.68461-.43668.06833-.88907.11457-1.37185.11457Z" style="fill:#614a39;"></path><path d="M198.21813,461.71969l.39664-3.57561c1.17145-10.55282,1.7392-22.11279,1.68767-34.35911l-.00875-2.03085,2.22236.03986c1.25701,0,2.37305-.33053,3.27813-.98091l.54344-.39178.84967.02625-.00194.00097c.33248,0,.67079-.02819,1.06549-.09041l2.27972-.35484.0175,2.30791c.0943,12.75768-.46955,24.84165-1.67406,35.91457l-.26734,2.45374-2.34194-.78065c-.63579-.21193-1.33964-.31984-2.09112-.31984-1.00619,0-1.91905.19443-2.71428.57844l-3.24119,1.56226ZM204.28733,425.62818c-.00875,10.60142-.48219,20.68468-1.40866,30.04174.7369-.08458,1.5156-.09624,2.26222-.03208.95661-9.56704,1.4388-19.87099,1.43491-30.6999-.71648.32373-1.4806.55413-2.28847.69023Z" style="fill:#614a39;"></path><path d="M747.09796,241.30466c-1.87811-.1725-3.26927-1.05428-4.17265-2.28222-8.9738,23.8222-20.74784,65.17417-27.92532,113.6416-1.76294,11.90501-3.37414,25.29071-4.45362,39.31763.24934.05178.48872.12043.71239.21028,1.20661.48482,2.43948.93127,3.52869,1.65044.61936.40885,1.21154.86473,1.79785,1.32659,4.04705-56.97485,18.35278-116.94881,31.48142-152.28392-.4047-.47205-.72528-1.00818-.96876-1.58039Z" style="fill:#614a39;"></path><path d="M718.30521,399.06289l-2.95343-2.33027c-.52788-.41706-1.09465-.85453-1.66142-1.22881-.77579-.51233-1.70809-.88175-2.69386-1.27353l-.48025-.19152c-.11472-.04569-.24207-.08069-.37331-.10791l-1.71587-.35484.13416-1.74697c.9848-12.80531,2.48873-26.08018,4.46903-39.45713,8.975-60.60651,23.72463-102.61847,28.03131-114.0511l1.29395-3.4327,2.17375,2.95537c.64163.87203,1.56712,1.36978,2.75025,1.47866l1.18409.10791.46567,1.09368c.17402.40734.39178.76509.64843,1.06452l.76412.8905-.40831,1.09951c-12.66727,34.09274-27.27789,94.23164-31.36194,151.73209l-.26637,3.75254ZM712.65209,390.60314c.72815.2897,1.47185.59205,2.20486.97508,4.39514-56.2833,18.54982-114.55759,30.97599-148.39174-.01653-.02625-.03208-.0525-.04861-.07972-.69996-.16138-1.36297-.41025-1.97446-.73982-5.20204,14.28689-18.51288,54.35356-26.84041,110.58826-1.88794,12.75185-3.33938,25.40939-4.31737,37.64793Z" style="fill:#614a39;"></path><path d="M711.90933,420.53796c-1.00913-.17942-1.89707-.52442-2.66125-1.00112-.18758,12.78467.23727,25.67591,1.57775,38.13048,2.32658-.37585,4.7441.2586,6.52299,2.33895-1.35163-11.40303-1.9335-23.53745-1.88608-36.07331-1.27786-1.0818-2.45606-2.21417-3.55341-3.39501Z" style="fill:#614a39;"></path><path d="M720.09787,466.28496l-4.26196-4.98427c-1.50588-1.76156-3.38215-1.88211-4.69262-1.66726l-2.07265.33442-.22457-2.08723c-1.25603-11.67858-1.79072-24.58889-1.58851-38.37317l.0525-3.52992,2.99329,1.87044c.56677.35387,1.22492.59982,1.95502.73009l.65621.11666.45303.48803c1.0616,1.14229,2.19903,2.22917,3.38215,3.23049l.70773.59982-.00389.92744c-.04861,12.88017.58135,24.93595,1.87238,35.83194l.7719,6.51251ZM712.61125,455.59021c.79426.04666,1.56421.19346,2.29916.43844-.97216-9.65551-1.4563-20.12083-1.44074-31.18889-.77773-.68829-1.53504-1.40866-2.26319-2.15431-.07777,11.72913.3947,22.77483,1.40477,32.90476Z" style="fill:#614a39;"></path><path d="M448.38982,99.26806c-9.67846,111.48191-55.70957,175.74325-141.62961,188.78026-32.96221,4.99942-65.39481-3.09365-96.40123-24.0599-13.03256-8.81212-23.05703-18.1739-29.40142-24.76325-1.87249,2.57591-4.46686,4.31773-7.25867,6.12995-.04078.02648-.08448.04493-.12572.07011,6.61834,6.93371,17.1744,16.85224,31.14198,26.33199,26.53709,18.01083,55.12183,27.27397,83.68409,27.27397,6.60931,0,13.21957-.49624,19.80076-1.49481,46.00555-6.98016,82.64409-28.34424,108.89856-63.49713,24.67924-33.04423,35.65162-76.60266,40.70422-132.25016-3.25884-.07679-6.46871-.8717-9.41295-2.52103Z" style="fill:#614a39;"></path><path d="M742.31345,241.461c-.03339-.06771-.07546-.13062-.11037-.19745-.74122-.52582-1.45923-1.10758-2.15288-1.7745-.53008-.50959-.92939-1.10406-1.22583-1.73871-6.21656,6.61501-16.76431,16.74487-30.80441,26.23809-31.00594,20.96578-63.44042,29.06072-96.40076,24.0599-84.91882-12.88507-138.84586-75.78491-149.34135-184.90863-3.22076.34412-6.37357.1595-9.6678-.56102-.01055-.00228-.01968-.00586-.03-.0082,5.1222,55.28405,24.13779,98.58025,48.7008,131.46878,26.25447,35.15289,62.89301,56.51697,108.89856,63.49713,6.58401.99904,13.18863,1.49481,19.80076,1.49481,28.56038,0,57.14887-9.26455,83.68455-27.27397,14.73129-9.99831,25.66886-20.48506,32.19241-27.44226-1.42197-.36826-2.70943-1.27188-3.54368-2.85396Z" style="fill:#614a39;"></path><path d="M160.47103,254.15052c-18.14637,0-32.90962-14.7613-32.90962-32.90476,0-18.14443,14.76325-32.90573,32.90962-32.90573,18.14734,0,32.91059,14.7613,32.91059,32.90573,0,18.14345-14.76325,32.90476-32.91059,32.90476ZM160.47103,198.79272c-12.38242,0-22.45694,10.07257-22.45694,22.45305s10.07451,22.45207,22.45694,22.45207c12.3834,0,22.45791-10.0716,22.45791-22.45207s-10.07451-22.45305-22.45791-22.45305Z" style="fill:#614a39;"></path><path d="M455.56003,106.76303c-18.14734,0-32.91059-14.7613-32.91059-32.90573,0-18.14345,14.76325-32.90476,32.91059-32.90476,18.14637,0,32.90962,14.7613,32.90962,32.90476,0,18.14443-14.76325,32.90573-32.90962,32.90573ZM455.56003,51.40522c-12.3834,0-22.45791,10.0716-22.45791,22.45207s10.07451,22.45305,22.45791,22.45305c12.38242,0,22.45694-10.07257,22.45694-22.45305s-10.07451-22.45207-22.45694-22.45207Z" style="fill:#614a39;"></path><path d="M759.88165,252.06135c-18.14734,0-32.91059-14.7613-32.91059-32.90476s14.76325-32.90476,32.91059-32.90476c18.14637,0,32.90962,14.7613,32.90962,32.90476s-14.76325,32.90476-32.90962,32.90476ZM759.88165,196.70451c-12.3834,0-22.45791,10.0716-22.45791,22.45207s10.07451,22.45207,22.45791,22.45207c12.38242,0,22.45694-10.0716,22.45694-22.45207s-10.07451-22.45207-22.45694-22.45207Z" style="fill:#614a39;"></path><path d="M201.56577,357.06551c14.62676-5.44009,29.88574-9.6218,45.16365-12.74172,11.54319-2.1484,23.18717-3.65149,34.63719-6.27426,11.47952-2.44671,22.89169-5.31054,34.50837-7.06915,15.21445-2.56015,31.39895-4.43143,46.80908-4.42297,5.66737-.00536,12.0318.05837,17.6524.70434,1.95514.16704,3.90724.33644,5.85253.55117.10937.01203.18811.11058.17596.22007-.01066.10152-.09711.17687-.19638.17754-23.22541.91639-46.71068,3.74226-69.75211,6.47596-11.53371,1.57597-23.29405,2.81894-34.79515,4.69115-11.57658,1.88527-22.86502,5.09158-34.1588,8.17881-7.55859,1.93385-15.1711,3.62334-22.7948,5.29036-7.63196,1.63542-15.26974,3.25225-22.99406,4.60209-.22326.05159-.33174-.309-.10791-.3834h0Z" style="fill:#614a39;"></path><path d="M207.53435,440.65768c7.8506-6.08907,17.47857-9.60038,26.75622-12.8828,13.07898-4.56888,26.89951-6.71296,40.48147-9.01771,6.84099-1.30242,16.4819-3.20909,23.18494-4.72704,23.17973-4.84743,46.70356-8.02416,70.33986-9.36826,7.88181-.40071,15.77187-.66915,23.66972-.71763.11034-.00061.20027.08822.20075.19844.00097.09916-.07437.1824-.16916.19856-9.73829,1.71069-19.48552,2.91917-29.25527,4.21218-17.30289,2.40878-35.3537,4.15117-52.6926,6.34136-11.7201,1.30031-23.51055,2.49031-35.02166,5.12752-7.70486,1.61091-15.2187,4.03803-22.76656,6.16257-9.39783,2.73496-18.88285,5.16924-28.15379,8.30352-5.51141,1.877-11.16965,3.76597-16.33138,6.48507-.09591.06538-.23199.03773-.2887-.06569-.04764-.08494-.02625-.18993.04618-.25009h0Z" style="fill:#614a39;"></path><path d="M205.70231,429.03573c6.62653-4.94572,14.2922-8.38756,22.15839-10.77515,3.95933-1.0953,8.0513-1.75372,12.02476-2.77998,7.95512-2.03762,15.50976-5.41345,23.52243-7.25205,11.92066-3.18994,24.27888-4.66102,36.62085-4.28361.21669-.00045.26632.34769.04467.3957-17.71175,5.02474-35.90379,7.29112-53.93796,10.72601-6.02271,1.23055-11.60016,3.89426-17.18677,6.33226-3.74578,1.57163-7.597,2.82037-11.42294,4.16718-3.84344,1.30659-7.68397,2.61402-11.63143,3.81877-.19897.08063-.37459-.22094-.192-.34913h0Z" style="fill:#614a39;"></path><path d="M197.38401,338.26584c11.37311-4.74673,23.28039-8.18205,35.33948-10.65677,9.10436-1.58343,18.26553-2.6969,27.26722-4.79905,23.88609-5.96618,48.33807-10.51245,73.05656-9.98801,3.08658.06689,6.17028.17079,9.24911.36802.22671.00666.24768.37633.0121.39798-21.09947,2.96218-51.52031,6.62265-72.94414,9.25452-6.09607.71529-12.16451,1.68332-18.14348,3.07013-5.98754,1.34771-11.83412,3.31221-17.74632,4.93183-5.90528,1.65347-11.89756,2.9241-17.88048,4.25577-5.99824,1.27996-11.99599,2.55957-18.09582,3.54704-.21794.04767-.33007-.29917-.11423-.38145h0Z" style="fill:#614a39;"></path><path d="M195.99431,317.37518c5.02993-2.80228,10.54681-4.69199,16.19567-5.72121,5.7287-.56508,11.40737-1.14276,16.81159-3.31958,7.43204-2.64668,15.16754-4.49773,23.04417-5.06263,3.58728-.20065,7.23877-.27427,10.84106.17079.20339.01793.24702.33705.0408.39601-8.25971,2.75451-16.43478,4.54138-24.96118,5.67062-5.60863.96368-11.43667.79193-16.92389,2.39416-2.74538.75941-5.36244,2.04302-8.05825,2.97569-4.06802,1.32497-8.29149,2.08042-12.5399,2.59101-1.42715.16543-2.86789.28416-4.34266.28853-.1983.00883-.28854-.28633-.10742-.3834h0Z" style="fill:#614a39;"></path><path d="M716.63455,357.44732c-15.36132-2.9729-30.5516-6.46683-45.67413-10.40858-11.25852-3.2143-22.50951-6.54779-34.06456-8.56336-11.48123-2.00246-23.2226-3.3774-34.73966-5.08384-23.01481-2.994-46.45153-6.08315-69.67483-7.26261-.1119-.00221-.20118-.09712-.19543-.20918.00535-.10001.08312-.17912.17985-.1886,1.94724-.19273,3.90128-.34014,5.85776-.48535,5.62024-.58164,11.97603-.57864,17.65925-.50479,15.4004.16465,31.57606,2.21862,46.75616,4.95092,11.59638,1.88929,22.97509,4.88197,34.42669,7.45817,17.11421,4.04064,34.74911,5.86145,51.66356,10.83525,9.35044,2.6482,18.8698,5.48206,27.91758,9.07991.21598.07571.117.43739-.11225.38206h0Z" style="fill:#614a39;"></path><path d="M709.5888,440.89781c-10.43988-5.35587-21.86321-8.5269-33.0403-11.97053-11.34782-3.14046-22.47715-7.07809-33.97027-9.73836-11.48113-2.76677-23.25676-4.08978-34.96189-5.52222-17.31443-2.386-35.33996-4.33111-52.61776-6.93564-9.75429-1.40299-19.48807-2.72169-29.20568-4.54212-.10889-.0178-.18229-.1206-.16479-.22936.01653-.09782.10451-.16709.20075-.16709,7.89638.13744,15.78305.49495,23.65999.98468,23.61974,1.61059,47.10627,5.05283,70.22946,10.16134,6.64786,1.5844,16.33336,3.61115,23.13066,4.98802,11.6119,2.21395,23.43994,3.93442,34.72705,7.62768,3.26038,1.03738,8.0804,2.63146,11.22695,3.92153,4.6207,1.72704,9.19191,3.83941,13.55298,6.16427,2.60461,1.47326,5.19675,2.98293,7.47884,4.94476.0836.07122.09381.19663.02235.28012-.07033.08018-.18302.09091-.26832.03293h0Z" style="fill:#614a39;"></path><path d="M711.60215,429.33103c-7.77923-2.57308-15.4122-5.14088-22.96299-8.2455-5.55871-2.50081-11.10551-5.22741-17.11442-6.52541-17.99458-3.63884-36.15916-6.11001-53.81346-11.33457-.21081-.04947-.17674-.40131.0496-.39491,12.34573-.23832,24.6857,1.37245,36.57025,4.6965,7.00508,1.65427,13.61195,4.61107,20.49801,6.64213,6.83655,2.2205,14.13014,2.93046,20.75031,5.84426,1.62628.67414,4.07376,1.72881,5.63596,2.52502,3.68903,1.83057,7.32103,3.83152,10.58214,6.44566.17267.12881.01075.43306-.1954.34682h0Z" style="fill:#614a39;"></path><path d="M721.02191,338.69408c-12.10251-2.25153-24.03959-4.93655-35.88593-8.20815-5.8932-1.68639-11.71791-3.71675-17.68941-5.13186-5.96266-1.4542-12.0204-2.49063-18.10748-3.27478-21.47827-2.88473-51.64934-6.85998-72.83512-10.07693-.22633-.0215-.21971-.39494.01685-.39793,3.08024-.16248,6.1654-.23162,9.2525-.2637,24.72376-.24528,49.12086,4.57653,72.93882,10.81225,8.97764,2.20318,18.1254,3.41997,27.21137,5.10615,6.03467,1.22641,11.96534,2.8888,17.84789,4.70444,5.88839,1.83332,11.72301,3.83535,17.36914,6.35038.20706.08347.10627.43144-.11861.38014h0Z" style="fill:#614a39;"></path><path d="M722.65417,317.8225c-5.73394-.23739-11.40547-1.30771-16.84905-3.06969-2.68508-.9632-5.28756-2.27635-8.02419-3.06672-5.46947-1.66383-11.298-1.55806-16.89568-2.5849-8.51356-1.22556-16.66667-3.10426-24.89562-5.95187-.19514-.05967-.16828-.38324.04525-.39569,3.60636-.4041,7.25549-.29021,10.84199-.04834,7.87053.65398,15.58375,2.59176,22.98582,5.32263,2.69773,1.00441,5.42221,1.86246,8.22301,2.4104,2.79788.55826,5.72069.63178,8.54968,1.09854,2.82943.46635,5.55281,1.34877,8.25172,2.29853,2.71785.98891,5.37567,2.10004,7.87889,3.60489.17274.09817.09298.39558-.11181.38221h0Z" style="fill:#614a39;"></path><path d="M629.49176,460.47648c0,6.02488-83.64741,21.71513-184.16615,21.71513s-166.51815-15.25742-167.50882-21.20033c-.4643-2.78528,74.0315-17.50328,174.55024-17.50328s177.12473,10.9636,177.12473,16.98848Z" style="fill:#614a39;"></path><path d="M375.38682,308.37163c2.594-1.45607,5.35359-2.07777,8.24001-1.85833,1.39751.1918,2.81298.76476,4.20366.81823,1.39165.07571,2.76629-.20695,4.13363-.64649,2.69616-.89791,5.45735-1.32033,8.26045-1.43342,2.77796.03958,5.57098.383,8.40192,1.52675.16781.06318.18479.31962.01942.39786-4.03096,2.02537-8.07858,2.6453-12.38434,2.27829-2.76173.01053-5.59682-1.30224-8.36935-.83999-1.3795.1863-2.73372.89197-4.10641,1.21643-1.37423.32035-2.7684.22925-4.16037.08922-1.39651-.17137-2.79837-.46241-4.21967-1.15082-.15817-.07171-.17116-.31176-.01896-.39774h0Z" style="fill:#614a39;"></path><path d="M406.95048,401.35258c2.62223-1.40489,5.39336-1.97243,8.27501-1.69646,1.39313.21914,2.79742.81969,4.18664.90038,1.39019.10305,2.77017-.15275,4.14578-.56531,2.71307-.84512,5.48245-1.21302,8.2867-1.27143,2.77699.09415,5.56272.49212,8.37081,1.69129.16639.06622.17826.3236.01116.39798-4.06952,1.94621-8.12907,2.48662-12.42663,2.03525-2.76147-.04364-5.57048-1.41165-8.35137-1.0038-1.38242.1592-2.75025.83826-4.12926,1.13574-1.38003.29344-2.772.17497-4.16134.00768-1.39262-.19859-2.78865-.51709-4.19634-1.23321-.15633-.07495-.16514-.31509-.01118-.3981h0Z" style="fill:#614a39;"></path><path d="M399.75017,325.18115c2.03485-1.34584,4.22601-1.9113,6.54991-1.59438,1.10149.23615,2.21121.85396,3.31024.95178,1.09951.12006,2.19174-.1186,3.28056-.51427,4.38618-1.5767,8.88266-1.69599,13.17667.62469.15159.07997.15766.31246.00826.39827-2.16742,1.32202-4.3509,1.84297-6.54069,2.05989-2.23265.06661-4.4372-.18412-6.60001-.90306-1.10437-.35127-2.20534-.5457-3.29902-.38128-1.09417.14218-2.17764.80434-3.26889,1.08469-1.09333.27657-2.19477.1405-3.29223-.04348-1.10097-.21572-2.20486-.55136-3.31701-1.28473-.13967-.08869-.14422-.30417-.00778-.3981h0Z" style="fill:#614a39;"></path><path d="M317.13927,400.34128c1.93988-1.47956,4.08733-2.1914,6.42741-2.03173,1.11559.16153,2.2642.70327,3.36712.72685,1.10486.04581,2.17861-.26601,3.23876-.73398,4.27018-1.86854,8.74795-2.28999,13.18882-.26375.15637.06947.17811.30119.035.39669-2.07361,1.46505-4.21723,2.13183-6.38709,2.49554-2.22365.21687-4.43958.11507-6.64619-.4566-1.12528-.27617-2.23694-.39599-3.31701-.1583-1.08202.21546-2.11883.94895-3.18869,1.30221-1.07135.34961-2.18067.28804-3.28736.17817-1.11361-.14099-2.23743-.40152-3.39625-1.05834-.1449-.07915-.16441-.29377-.03451-.39676h0Z" style="fill:#614a39;"></path><path d="M452.34072,323.93873c2.08908-1.2602,4.30157-1.73444,6.61019-1.32133,1.09079.28172,2.17378.94498,3.26794,1.08825,1.09368.16563,2.19466-.02759,3.29903-.37768,4.44766-1.39328,8.94558-1.32598,13.13973,1.1708.14776.08621.14447.31872-.00827.39815-2.22041,1.23112-4.42381,1.66106-6.62041,1.78683-2.23411-.02589-4.42593-.36797-6.55724-1.176-1.08881-.39684-2.18055-.63672-3.28006-.51787-1.09903.09661-2.20924.71332-3.31167.94822-1.10299.23101-2.19881.04922-3.28688-.18007-1.09174-.26129-2.18056-.64238-3.26111-1.4212-.13608-.09444-.13193-.31021.00875-.3981h0Z" style="fill:#614a39;"></path><path d="M534.97738,309.94859c2.04955-1.32319,4.24678-1.86438,6.56693-1.52196,1.09906.24842,2.20197.87851,3.29954.98848,1.09806.13221,2.19271-.09442,3.28639-.47794,4.40298-1.52802,8.90135-1.59756,13.1689.77051.15086.08157.15404.31417.00388.39815-2.18201,1.29808-4.37131,1.79485-6.56305,1.98746-2.23348.04196-4.43544-.23318-6.58981-.97597-1.10048-.36354-2.19902-.57013-3.29465-.41774-1.09563.13003-2.18639.78004-3.28056,1.04848-1.09615.26435-2.19612.11627-3.29125-.08006-1.09903-.22787-2.19903-.57566-3.30292-1.32131-.13848-.09015-.14087-.30565-.0034-.3981h0Z" style="fill:#614a39;"></path><path d="M431.95691,306.19982c.75802-1.01363,1.99477-1.87436,3.22416-1.41582.53033.26672,1.05481.91212,1.58707,1.04287.53177.1468,1.06889-.05991,1.60796-.42641,1.47765-1.02069,3.24785-1.40511,4.81218-.40916.52936.30223,1.05724.73703,1.58221,1.39153.09527.11897.08944.2863-.00583.39822-1.70891,2.12196-4.3116,2.45579-6.41969.79925-.52835-.38171-1.05915-.6036-1.5953-.47212-.53566.11544-1.07861.74553-1.61622.99695-1.24413.42336-2.44999-.47212-3.18239-1.50712-.08262-.12453-.07484-.28287.00585-.39819h0Z" style="fill:#614a39;"></path><path d="M262.80904,463.01181c17.06653,13.63658,49.44901,18.94144,71.0392,22.30351,41.55859,5.92938,83.57142,9.52264,125.57371,7.75576,50.2402-1.92923,100.84393-3.35867,150.29817-13.01263,16.30805-3.45944,32.75141-7.80618,47.0298-16.7137l.23035.3246c-13.66445,10.12461-30.26709,15.31205-46.56942,19.44787-65.85382,15.06314-134.3688,12.57409-201.45864,11.05113-37.82486-.9616-76.30542-2.53445-112.76401-13.54006-8.08176-2.47239-16.11249-5.52688-23.44273-9.7694-3.68253-2.11449-7.14537-4.6285-10.20476-7.553l.26832-.29408h0Z" style="fill:#614a39;"></path><path d="M237.04043,473.29704c23.75295,19.36779,78.37311,25.50463,109.15281,29.1988,18.96781,2.22399,38.02824,3.95104,57.11406,4.83358,38.21127,1.76292,76.48979-.32688,114.65287-1.96221,28.58336-1.48788,57.15173-3.73034,85.506-7.63871,18.83671-2.67388,37.65846-6.1486,55.73989-12.13458,8.99878-3.0487,17.82212-6.75422,25.86579-11.91627l.23089.3247c-1.25688.86138-3.27068,2.32954-4.41759,3.11445-6.61266,4.14354-13.72408,7.5938-20.99676,10.37206-45.25982,16.43218-94.06638,19.58326-141.76674,21.62087-38.29298,1.35451-76.58465.65511-114.86247-.49011-42.99539-1.19506-86.72178-3.10737-128.19023-15.48526-9.18832-2.79015-18.31856-6.23079-26.66641-11.01539-4.19194-2.38597-8.13454-5.22492-11.63043-8.52784l.26832-.29408h0Z" style="fill:#614a39;"></path><path d="M223.11179,487.51782c25.16819,20.63326,83.25745,27.21478,115.93364,31.10667,20.15109,2.34419,40.39802,4.14385,60.67217,5.07151,40.58782,1.85326,81.24579-.27972,121.78465-2.0079,30.36398-1.56579,60.71455-3.93831,90.83247-8.1118,20.00942-2.85456,40.0052-6.56117,59.20662-12.94779,9.55729-3.25128,18.9265-7.20469,27.45965-12.70543l.2304.32458c-1.33739.91251-3.47689,2.4663-4.6971,3.29758-7.02833,4.38808-14.58501,8.0369-22.31015,10.97832-48.0833,17.38594-99.90559,20.71163-150.5609,22.90709-40.66862,1.44726-81.33967.79123-121.99377-.44446-45.65865-1.31536-92.08634-3.40288-136.13522-16.4873-9.75757-2.95386-19.45485-6.59326-28.32638-11.65715-4.45442-2.5256-8.64444-5.53201-12.3649-9.02985l.2688-.29408h0Z" style="fill:#614a39;"></path><path d="M417.66936,624.80683c11.20809,27.18104,3.76492,63.2822-10.98875,85.70062-13.87706,21.0864-28.91841,32.24227-42.30709,43.49012-13.38869,11.24784-34.00678,30.06197-43.88332,49.28105-9.87654,19.21907-6.45871,40.95076-11.75473,42.43903-2.9522.82962-12.4606-2.09677-18.27547-24.51786-5.81488-22.42109-2.7067-49.4023,11.78087-82.83665,15.0358-34.69955,48.64779-67.28118,57.86506-79.34602,9.21727-12.06484,19.64696-30.53703,20.55314-41.9821,1.0802-13.64291-.39654-22.24973-3.3537-31.86745-.88299-2.87177,1.99298-5.43802,4.7415-4.21076,13.19724,5.89277,25.76036,19.93309,35.6225,43.85003ZM416.59009,453.05056c-6.83057,1.95203-.03938,21.591-7.52405,30.41861-7.48467,8.82761-12.83827,9.02599-20.13196,23.11049-4.75565,9.18342-.64449,25.59016,7.53838,35.28833,11.91759,14.12448,19.52016,22.15768,25.22462,21.15735,5.70446-1.00033,2.24603-6.9965,3.38533-11.86276,1.42779-6.09849,6.88527-15.41543,13.01377-24.34884,14.22122-20.73001,10.0029-32.54834,7.10991-41.6584-2.89299-9.11006-19.49423-34.71159-28.616-32.10478ZM561.62619,499.53741c-12.06899-.89268-47.40841,46.1218-44.93549,68.4388,1.9796,17.865,8.55509,29.756,25.79447,45.52668,17.23938,15.77068,4.09946,43.32613,17.45606,45.22912,10.4425,1.4878,48.18546-35.7072,46.53785-61.89248-2.13351-33.90771-38.62148-48.91944-40.95574-61.59492-2.63027-14.28288,9.58145-34.71026-3.89715-35.7072ZM487.11008,549.92424c-13.19785-9.76867-41.16861,22.81293-48.89106,63.47947-7.15558,37.68138,4.3017,75.26818-6.99148,99.58342-20.26954,43.64213-113.82608,94.42571-108.1915,144.41579,5.1573,45.75568,37.40046,76.18652,71.44725,92.04523,26.40483,12.29915,37.97699,5.92757,38.51231,1.19024,1.03115-9.12517-21.68455-14.67963-24.10994-62.68597-1.40749-27.85888,51.03972-93.83059,55.98042-89.268,6.8054,6.28458-13.1975,16.86173-8.90722,35.31045,7.13483,30.6806,34.56808,25.2926,36.20356,50.78357,2.90608,45.29458-11.03945,52.90936-7.59409,65.06645,4.863,17.15929,65.98097-10.81135,97.61478-45.62587,36.23927-39.88304,39.79781-76.772,41.73327-109.79964,4.58604-78.25828-36.22005-119.91668-56.37475-115.15572-9.43066,2.22772,9.52993,26.96356,1.90881,63.87621-5.48822,26.58203-12.38638,40.95598-18.73767,40.46816-10.33117-.79349-2.7163-64.66971-16.5525-107.1216-7.6422-23.44761-47.60744-44.83237-51.79182-79.94445-3.47188-29.13333,11.17385-41.85677,4.74161-46.61773Z" style="fill:#ef5223;"></path></svg>